<svg width="41" height="41" viewBox="0 0 41 41" fill="none" xmlns="http://www.w3.org/2000/svg">
<path d="M6.32776 19.9707H12.9279V20.3135H6.32121V20.3134L6.31081 20.3136C4.80437 20.345 3.34692 19.7779 2.25774 18.7367C1.17148 17.6984 0.539837 16.2728 0.50016 14.771C0.539837 13.2691 1.17148 11.8436 2.25774 10.8052C3.34692 9.76401 4.80437 9.19697 6.31081 9.22828L6.31081 9.22839H6.32121H26.3559V9.57118H6.32777C4.91523 9.53498 3.5456 10.059 2.51798 11.0292C1.48869 12.0008 0.886408 13.3408 0.843029 14.7556L0.84256 14.771L0.843029 14.7863C0.886408 16.2011 1.48869 17.5411 2.51798 18.5128C3.5456 19.4829 4.91522 20.007 6.32776 19.9707ZM34.107 35.0843H13.9279V34.7415H34.107C35.486 34.7415 36.8086 34.1937 37.7838 33.2185C38.7589 32.2434 39.3068 30.9208 39.3068 29.5417C39.3068 28.1626 38.7589 26.8401 37.7838 25.8649C36.8086 24.8898 35.486 24.3419 34.107 24.3419H28.0273V23.9991H34.107C35.577 23.9991 36.9867 24.5831 38.0262 25.6225C39.0656 26.6619 39.6496 28.0717 39.6496 29.5417C39.6496 31.0117 39.0656 32.4215 38.0262 33.4609C36.9867 34.5003 35.577 35.0843 34.107 35.0843Z" fill="#941B0C" stroke="#2A3671"/>
<path d="M5.37118 32.7271C6.66309 32.7271 7.9021 33.2403 8.81562 34.1538C9.72914 35.0673 10.2424 36.3063 10.2424 37.5982V39.7838H0.5V37.5982C0.5 36.3063 1.01321 35.0673 1.92674 34.1538C2.84026 33.2403 4.07926 32.7271 5.37118 32.7271Z" stroke="#2A3671"/>
<path d="M7.55673 29.5415C7.55673 30.7486 6.5782 31.7271 5.37114 31.7271C4.16407 31.7271 3.18555 30.7486 3.18555 29.5415C3.18555 28.3345 4.16407 27.356 5.37114 27.356C6.5782 27.356 7.55673 28.3345 7.55673 29.5415Z" stroke="#2A3671"/>
<path d="M20.1417 19.2993C21.4336 19.2993 22.6726 19.8125 23.5861 20.7261L23.9397 20.3725L23.5861 20.7261C24.4997 21.6396 25.0129 22.8786 25.0129 24.1705V26.3561H15.2705V24.1705C15.2705 22.8786 15.7837 21.6396 16.6972 20.7261C17.6108 19.8125 18.8498 19.2993 20.1417 19.2993Z" stroke="#2A3671"/>
<path d="M22.3272 16.1133C22.3272 17.3204 21.3487 18.2989 20.1416 18.2989C18.9346 18.2989 17.9561 17.3204 17.9561 16.1133C17.9561 14.9063 18.9346 13.9277 20.1416 13.9277C21.3487 13.9277 22.3272 14.9063 22.3272 16.1133Z" stroke="#2A3671"/>
<path d="M34.9122 5.87109C36.2041 5.87109 37.4431 6.38431 38.3566 7.29783C39.2702 8.21135 39.7834 9.45036 39.7834 10.7423V12.9279H30.041V10.7423C30.041 9.45036 30.5542 8.21135 31.4678 7.29783C32.3813 6.38431 33.6203 5.87109 34.9122 5.87109Z" stroke="#2A3671"/>
<path d="M37.0987 2.68559C37.0987 3.89266 36.1202 4.87118 34.9131 4.87118C33.7061 4.87118 32.7275 3.89266 32.7275 2.68559C32.7275 1.47852 33.7061 0.5 34.9131 0.5C36.1202 0.5 37.0987 1.47852 37.0987 2.68559Z" stroke="#2A3671"/>
</svg>
