<svg width="185" height="36" viewBox="0 0 185 36" fill="none" xmlns="http://www.w3.org/2000/svg">
<path d="M57.2886 9.75766C59.1766 9.75766 60.6406 10.2057 61.6806 11.1017C62.7366 11.9817 63.2646 13.1577 63.2646 14.6297C63.2646 16.2457 62.7446 17.4777 61.7046 18.3257C60.6646 19.1737 59.2006 19.5977 57.3126 19.5977L56.9286 19.8137H53.7846V25.5977H49.7286V9.75766H57.2886ZM56.7126 16.8857C57.5126 16.8857 58.1126 16.7257 58.5126 16.4057C58.9126 16.0857 59.1126 15.5737 59.1126 14.8697C59.1126 14.1817 58.9126 13.6777 58.5126 13.3577C58.1126 13.0377 57.5126 12.8777 56.7126 12.8777H53.7846V16.8857H56.7126ZM59.1366 17.7497L64.2006 25.5977H59.6406L55.5846 18.6617L59.1366 17.7497ZM70.4034 9.75766V25.5977H66.2754V9.75766H70.4034ZM80.4681 25.8377C79.0601 25.8377 77.8041 25.5257 76.7001 24.9017C75.6121 24.2777 74.7641 23.3577 74.1561 22.1417C73.5481 20.9257 73.2441 19.4457 73.2441 17.7017C73.2441 15.9897 73.5641 14.5257 74.2041 13.3097C74.8441 12.0937 75.7561 11.1577 76.9401 10.5017C78.1401 9.84566 79.5481 9.51766 81.1641 9.51766C82.9561 9.51766 84.4041 9.84566 85.5081 10.5017C86.6121 11.1417 87.4681 12.1657 88.0761 13.5737L84.2601 15.0857C84.0521 14.2697 83.6841 13.6777 83.1561 13.3097C82.6281 12.9417 81.9721 12.7577 81.1881 12.7577C80.4041 12.7577 79.7321 12.9497 79.1721 13.3337C78.6121 13.7017 78.1881 14.2537 77.9001 14.9897C77.6121 15.7097 77.4681 16.6057 77.4681 17.6777C77.4681 18.7977 77.6121 19.7337 77.9001 20.4857C78.2041 21.2377 78.6441 21.7977 79.2201 22.1657C79.8121 22.5177 80.5401 22.6937 81.4041 22.6937C81.8681 22.6937 82.2921 22.6377 82.6761 22.5257C83.0601 22.4137 83.3961 22.2537 83.6841 22.0457C83.9721 21.8217 84.1961 21.5497 84.3561 21.2297C84.5161 20.8937 84.5961 20.5017 84.5961 20.0537V19.8137H80.9721V17.0537H88.1001V25.5977H85.2921L84.9801 21.8777L85.6521 22.4537C85.3161 23.5417 84.7081 24.3817 83.8281 24.9737C82.9641 25.5497 81.8441 25.8377 80.4681 25.8377ZM105.564 9.75766V25.5977H101.436V9.75766H105.564ZM95.3878 9.75766V25.5977H91.2598V9.75766H95.3878ZM103.644 16.0217V19.2137H93.2758V16.0217H103.644ZM122.392 9.75766V12.9497H117.232V25.5977H113.104V12.9497H107.92V9.75766H122.392ZM137.389 9.51766C138.861 9.51766 140.157 9.74966 141.277 10.2137C142.413 10.6617 143.397 11.3257 144.229 12.2057L142.237 14.8697C141.549 14.1497 140.805 13.6137 140.005 13.2617C139.221 12.8937 138.325 12.7097 137.317 12.7097C136.725 12.7097 136.245 12.7737 135.877 12.9017C135.509 13.0297 135.245 13.2057 135.085 13.4297C134.925 13.6537 134.845 13.9097 134.845 14.1977C134.845 14.5337 134.997 14.8217 135.301 15.0617C135.621 15.2857 136.133 15.4777 136.837 15.6377L139.501 16.2377C141.085 16.6057 142.245 17.1417 142.981 17.8457C143.717 18.5497 144.085 19.4857 144.085 20.6537C144.085 21.7737 143.797 22.7257 143.221 23.5097C142.645 24.2777 141.853 24.8617 140.845 25.2617C139.837 25.6457 138.685 25.8377 137.389 25.8377C136.333 25.8377 135.325 25.7257 134.365 25.5017C133.405 25.2617 132.541 24.9257 131.773 24.4937C131.005 24.0617 130.357 23.5657 129.829 23.0057L131.821 20.2457C132.221 20.7097 132.709 21.1257 133.285 21.4937C133.877 21.8457 134.517 22.1257 135.205 22.3337C135.909 22.5417 136.621 22.6457 137.341 22.6457C137.901 22.6457 138.365 22.5897 138.733 22.4777C139.117 22.3657 139.397 22.1977 139.573 21.9737C139.749 21.7497 139.837 21.4857 139.837 21.1817C139.837 20.8457 139.717 20.5657 139.477 20.3417C139.237 20.1017 138.781 19.9017 138.109 19.7417L135.181 19.0937C134.285 18.8857 133.485 18.6137 132.781 18.2777C132.093 17.9257 131.549 17.4617 131.149 16.8857C130.749 16.2937 130.549 15.5577 130.549 14.6777C130.549 13.6857 130.821 12.8057 131.365 12.0377C131.909 11.2537 132.693 10.6377 133.717 10.1897C134.741 9.74166 135.965 9.51766 137.389 9.51766ZM150.794 9.75766V25.5977H146.666V9.75766H150.794ZM161.027 9.75766C163.507 9.75766 165.403 10.4457 166.715 11.8217C168.043 13.1977 168.707 15.1497 168.707 17.6777C168.707 20.2057 168.043 22.1577 166.715 23.5337C165.403 24.9097 163.507 25.5977 161.027 25.5977H154.307V9.75766H161.027ZM160.619 22.4777C161.963 22.4777 162.939 22.0777 163.547 21.2777C164.171 20.4617 164.483 19.2617 164.483 17.6777C164.483 16.0937 164.171 14.9017 163.547 14.1017C162.939 13.2857 161.963 12.8777 160.619 12.8777H158.435V22.4777H160.619ZM171.533 25.5977V9.75766H183.869V12.9497H175.661V16.1657H182.189V19.1657H175.661V22.4057H184.181V25.5977H171.533Z" fill="white"/>
<rect x="2.97656" y="2.16797" width="33" height="30.8595" rx="5" stroke="white" stroke-width="4" stroke-linejoin="round"/>
<path fill-rule="evenodd" clip-rule="evenodd" d="M18.8144 9.58934L27.3776 7.38825C27.3776 7.38825 30.3176 6.47556 29.9437 8.36576C29.5698 10.2555 27.7132 17.6355 27.7132 17.6355C27.7132 17.6355 27.1839 19.7001 26.1779 18.9815C25.1719 18.2629 24.9893 16.3243 24.8219 16.169C24.6545 16.0134 24.128 15.8689 23.4121 16.5423C22.6962 17.2161 11.8655 28.168 11.8655 28.168L8.97656 25.3195L20.9054 13.553C20.9054 13.553 21.8724 12.6343 20.2988 12.0905C18.7251 11.5464 18.2676 11.5592 17.9001 10.7241C17.533 9.88903 18.8144 9.58934 18.8144 9.58934Z" fill="white"/>
</svg>
